<svg width="32" height="32" viewBox="0 0 512 512" fill="none" xmlns="http://www.w3.org/2000/svg">
  <defs>
    <linearGradient id="tealBg" x1="0%" y1="0%" x2="100%" y2="100%">
      <stop offset="0%" style="stop-color:#0d9488;stop-opacity:1" />
      <stop offset="100%" style="stop-color:#14b8a6;stop-opacity:1" />
    </linearGradient>
    <linearGradient id="goldGrad" x1="0%" y1="0%" x2="100%" y2="100%">
      <stop offset="0%" style="stop-color:#fbbf24;stop-opacity:1" />
      <stop offset="100%" style="stop-color:#f59e0b;stop-opacity:1" />
    </linearGradient>
  </defs>
  <circle cx="256" cy="256" r="256" fill="url(#tealBg)"/>
  <g transform="translate(256, 180)">
    <rect x="-85" y="-35" width="170" height="100" rx="4" fill="#ffffff" opacity="0.95"/>
    <path d="M -75 -25 L -75 75 Q -75 80 -70 80 L -5 80 L -5 -25 Q -5 -30 -10 -27 Q -40 -15 -75 -25 Z" fill="#f0fdfa" stroke="#0d9488" stroke-width="2"/>
    <path d="M 5 -25 L 5 80 L 70 80 Q 75 80 75 75 L 75 -25 Q 40 -15 10 -27 Q 5 -30 5 -25 Z" fill="#f0fdfa" stroke="#0d9488" stroke-width="2"/>
    <text x="40" y="5" font-family="Arial, sans-serif" font-size="22" font-weight="700" text-anchor="middle" fill="#14b8a6">LISU</text>
    <rect x="-5" y="-35" width="10" height="120" rx="1" fill="url(#goldGrad)"/>
  </g>
  <text x="256" y="330" font-family="Arial, sans-serif" font-size="80" font-weight="900" text-anchor="middle" fill="#ffffff" letter-spacing="6">LISU</text>
  <text x="256" y="395" font-family="Arial, sans-serif" font-size="32" font-weight="400" text-anchor="middle" fill="#ffffff" opacity="0.95" letter-spacing="10">DICTIONARY</text>
</svg>